<svg xmlns="http://www.w3.org/2000/svg" version="1.1" width="3300" height="2000"><g id="Notes"><style>
    text {
      font-family: monospace;
      text-anchor: middle;
    }
    text.emphasis {
      font-weight:bold;
    }
    text.lanchor {
      text-anchor: start;
    }
  </style><rect height="2200" id="artboard" fill="white" width="3300" x="0" y="0"/><line id="" style="fill:none;stroke:black;stroke-width:0.5;" x1="263" x2="3036" y1="292" y2="292"/><text class="lanchor emphasis" transform="matrix(1 0 0 1 263 322)">Weight/Scale Variations</text><text transform="matrix(1 0 0 1 559.711 322)">Ultralight</text><text transform="matrix(1 0 0 1 856.422 322)">Thin</text><text transform="matrix(1 0 0 1 1153.13 322)">Light</text><text transform="matrix(1 0 0 1 1449.84 322)">Regular</text><text transform="matrix(1 0 0 1 1746.56 322)">Medium</text><text transform="matrix(1 0 0 1 2043.27 322)">Semibold</text><text transform="matrix(1 0 0 1 2339.98 322)">Bold</text><text transform="matrix(1 0 0 1 2636.69 322)">Heavy</text><text transform="matrix(1 0 0 1 2933.4 322)">Black</text><text id="template-version" style="text-anchor: end;" transform="matrix(1 0 0 1 3036 1933)">Template v.1.0</text><text class="lanchor" transform="matrix(1 0 0 1 263 726)">Small</text><text class="lanchor" transform="matrix(1 0 0 1 263 1156)">Medium</text><text class="lanchor" transform="matrix(1 0 0 1 263 1586)">Large</text></g><g id="Guides"><g id="H-reference" style="fill:#27AAE1;stroke:none;" transform="matrix(1 0 0 1 339 696)"><path d="M 54.9316 0 L 57.666 0 L 30.5664 -70.459 L 28.0762 -70.459 L 0.976562 0 L 3.66211 0 L 12.9395 -24.4629 L 45.7031 -24.4629 Z M 29.1992 -67.0898 L 29.4434 -67.0898 L 44.8242 -26.709 L 13.8184 -26.709 Z"/></g><line id="Baseline-S" style="fill:none;stroke:#27AAE1;opacity:1;stroke-width:0.577;" x1="263" x2="3036" y1="696" y2="696"/><line id="Capline-S" style="fill:none;stroke:#27AAE1;opacity:1;stroke-width:0.577;" x1="263" x2="3036" y1="625.541" y2="625.541"/><g id="H-reference" style="fill:#27AAE1;stroke:none;" transform="matrix(1 0 0 1 339 1126)"><path d="M 54.9316 0 L 57.666 0 L 30.5664 -70.459 L 28.0762 -70.459 L 0.976562 0 L 3.66211 0 L 12.9395 -24.4629 L 45.7031 -24.4629 Z M 29.1992 -67.0898 L 29.4434 -67.0898 L 44.8242 -26.709 L 13.8184 -26.709 Z"/></g><line id="Baseline-M" style="fill:none;stroke:#27AAE1;opacity:1;stroke-width:0.577;" x1="263" x2="3036" y1="1126" y2="1126"/><line id="Capline-M" style="fill:none;stroke:#27AAE1;opacity:1;stroke-width:0.577;" x1="263" x2="3036" y1="1055.54" y2="1055.54"/><g id="H-reference" style="fill:#27AAE1;stroke:none;" transform="matrix(1 0 0 1 339 1556)"><path d="M 54.9316 0 L 57.666 0 L 30.5664 -70.459 L 28.0762 -70.459 L 0.976562 0 L 3.66211 0 L 12.9395 -24.4629 L 45.7031 -24.4629 Z M 29.1992 -67.0898 L 29.4434 -67.0898 L 44.8242 -26.709 L 13.8184 -26.709 Z"/></g><line id="Baseline-L" style="fill:none;stroke:#27AAE1;opacity:1;stroke-width:0.577;" x1="263" x2="3036" y1="1556" y2="1556"/><line id="Capline-L" style="fill:none;stroke:#27AAE1;opacity:1;stroke-width:0.577;" x1="263" x2="3036" y1="1485.54" y2="1485.54"/><rect height="119.336" id="left-margin" style="fill:darkred;stroke:none;opacity:0.4;" width="12.4512" x="1394.06" y="1030.79"/><rect height="119.336" id="right-margin" style="fill:darkgreen;stroke:none;opacity:0.4;" width="12.4512" x="1502.5112" y="1030.79"/><rect x="1406.5112" y="1045" width="96" height="96" fill="none" stroke="blue" stroke-dasharray="5"/><rect x="1394.06" y="1030.79" width="120.9024" height="119.336" fill="none" stroke="blue"/></g><g id="Symbols"><g id="Bold-L" transform="matrix(1 0 0 1 2266 1556)"><path d="M128.194 27.174  84.817 -16.041 Q80.141 -12.345 73.778 -10.242 Q67.416 -8.14 59.985 -8.14 Q41.415 -8.14 28.528 -21.04 Q15.641 -33.94 15.641 -52.161 Q15.641 -70.382 28.541 -83.282 Q41.441 -96.182 59.743 -96.182 Q78.045 -96.182 90.864 -83.282 Q103.684 -70.382 103.684 -52.137 Q103.684 -44.905 101.668 -38.697 Q99.653 -32.489 95.621 -27.006 L139.159 16.209 L128.194 27.174 Z M59.881 -23.297 Q71.958 -23.297 80.242 -31.723 Q88.526 -40.148 88.526 -52.161 Q88.526 -64.174 80.218 -72.6 Q71.91 -81.025 59.881 -81.025 Q47.717 -81.025 39.258 -72.6 Q30.799 -64.174 30.799 -52.161 Q30.799 -40.148 39.234 -31.723 Q47.669 -23.297 59.881 -23.297 Z"/></g><g id="Semibold-L" transform="matrix(1 0 0 1 1970.27 1556)"><path d="M128.264 25.211  85.308 -17.654 Q80.562 -13.742 74.164 -11.537 Q67.766 -9.332 60.406 -9.332 Q42.327 -9.332 29.79 -21.881 Q17.254 -34.431 17.254 -52.161 Q17.254 -69.892 29.803 -82.441 Q42.353 -94.991 60.164 -94.991 Q77.975 -94.991 90.444 -82.441 Q102.913 -69.892 102.913 -52.137 Q102.913 -45.045 100.792 -38.732 Q98.671 -32.419 94.429 -26.866 L137.546 15.928 L128.264 25.211 Z M60.277 -22.106 Q72.799 -22.106 81.469 -30.899 Q90.139 -39.692 90.139 -52.161 Q90.139 -64.63 81.455 -73.423 Q72.772 -82.217 60.277 -82.217 Q47.646 -82.217 38.837 -73.423 Q30.028 -64.63 30.028 -52.161 Q30.028 -39.692 38.824 -30.899 Q47.62 -22.106 60.277 -22.106 Z"/></g><g id="Medium-L" transform="matrix(1 0 0 1 1674.31 1556)"><path d="M128.316 23.738  85.676 -18.863 Q80.877 -14.789 74.453 -12.507 Q68.029 -10.226 60.721 -10.226 Q43.01 -10.226 30.737 -22.512 Q18.463 -34.799 18.463 -52.161 Q18.463 -69.524 30.75 -81.81 Q43.036 -94.097 60.479 -94.097 Q77.922 -94.097 90.128 -81.81 Q102.334 -69.524 102.334 -52.137 Q102.334 -45.15 100.134 -38.758 Q97.935 -32.366 93.535 -26.761 L136.337 15.718 L128.316 23.738 Z M60.574 -21.212 Q73.43 -21.212 82.389 -30.281 Q91.348 -39.351 91.348 -52.161 Q91.348 -64.972 82.383 -74.041 Q73.419 -83.111 60.574 -83.111 Q47.594 -83.111 38.521 -74.041 Q29.449 -64.972 29.449 -52.161 Q29.449 -39.351 38.516 -30.281 Q47.582 -21.212 60.574 -21.212 Z"/></g><g id="Regular-L" transform="matrix(1 0 0 1 1378.56 1556)"><path d="M128.355 22.659  85.946 -19.75 Q81.109 -15.557 74.665 -13.219 Q68.222 -10.881 60.953 -10.881 Q43.511 -10.881 31.431 -22.975 Q19.35 -35.069 19.35 -52.161 Q19.35 -69.254 31.444 -81.347 Q43.538 -93.441 60.711 -93.441 Q77.884 -93.441 89.897 -81.347 Q101.91 -69.254 101.91 -52.137 Q101.91 -45.227 99.653 -38.777 Q97.395 -32.327 92.88 -26.684 L135.45 15.564 L128.355 22.659 Z M60.791 -20.556 Q73.893 -20.556 83.064 -29.828 Q92.235 -39.1 92.235 -52.161 Q92.235 -65.222 83.064 -74.494 Q73.893 -83.766 60.791 -83.766 Q47.555 -83.766 38.29 -74.494 Q29.025 -65.222 29.025 -52.161 Q29.025 -39.1 38.29 -29.828 Q47.555 -20.556 60.791 -20.556 Z"/></g><g id="Light-L" transform="matrix(1 0 0 1 1082.77 1556)"><path d="M127.487 19.992  85.636 -21.859 Q80.823 -17.6 74.412 -15.295 Q68 -12.99 61.139 -12.99 Q44.712 -12.99 33.333 -24.36 Q21.955 -35.731 21.955 -51.934 Q21.955 -68.137 33.325 -79.518 Q44.696 -90.898 60.934 -90.898 Q77.173 -90.898 88.549 -79.525 Q99.925 -68.152 99.925 -51.942 Q99.925 -45.165 97.606 -38.747 Q95.286 -32.327 90.895 -27.118 L132.845 14.571 L127.487 19.992 Z M61.039 -20.308 Q74.255 -20.308 83.431 -29.518 Q92.607 -38.728 92.607 -51.944 Q92.607 -65.16 83.431 -74.37 Q74.255 -83.58 61.039 -83.58 Q47.741 -83.58 38.507 -74.37 Q29.273 -65.16 29.273 -51.944 Q29.273 -38.728 38.507 -29.518 Q47.741 -20.308 61.039 -20.308 Z"/></g><g id="Thin-L" transform="matrix(1 0 0 1 787.282 1556)"><path d="M126.618 17.325  85.326 -23.967 Q80.538 -19.641 74.158 -17.37 Q67.778 -15.099 61.325 -15.099 Q45.912 -15.099 35.236 -25.746 Q24.56 -36.393 24.56 -51.707 Q24.56 -67.021 35.207 -77.688 Q45.854 -88.356 61.158 -88.356 Q76.463 -88.356 87.202 -77.703 Q97.941 -67.05 97.941 -51.748 Q97.941 -45.103 95.559 -38.715 Q93.178 -32.327 88.911 -27.552 L130.24 13.579 L126.618 17.325 Z M61.287 -20.06 Q74.616 -20.06 83.798 -29.208 Q92.979 -38.356 92.979 -51.727 Q92.979 -65.098 83.798 -74.246 Q74.616 -83.394 61.287 -83.394 Q47.927 -83.394 38.724 -74.246 Q29.521 -65.098 29.521 -51.727 Q29.521 -38.356 38.724 -29.208 Q47.927 -20.06 61.287 -20.06 Z"/></g><g id="Ultralight-L" transform="matrix(1 0 0 1 491.205 1556)"><path d="M126.097 15.725  85.14 -25.232 Q80.366 -20.866 74.006 -18.615 Q67.645 -16.364 61.436 -16.364 Q46.632 -16.364 36.377 -26.577 Q26.123 -36.79 26.123 -51.571 Q26.123 -66.351 36.336 -76.591 Q46.549 -86.83 61.293 -86.83 Q76.037 -86.83 86.393 -76.609 Q96.75 -66.388 96.75 -51.631 Q96.75 -45.066 94.331 -38.697 Q91.913 -32.327 87.72 -27.812 L128.678 12.984 L126.097 15.725 Z M61.436 -19.911 Q74.833 -19.911 84.018 -29.022 Q93.203 -38.132 93.203 -51.597 Q93.203 -65.061 84.018 -74.172 Q74.833 -83.282 61.436 -83.282 Q48.039 -83.282 38.854 -74.172 Q29.67 -65.061 29.67 -51.597 Q29.67 -38.132 38.854 -29.022 Q48.039 -19.911 61.436 -19.911 Z"/></g><g id="Bold-M" transform="matrix(1 0 0 1 2281.8 1126)"><path d="M97.75 14.52  65.375 -17.855 Q61.75 -15.355 56.938 -13.855 Q52.125 -12.355 46.5 -12.355 Q31.75 -12.355 21.438 -22.667 Q11.125 -32.98 11.125 -47.73 Q11.125 -62.48 21.438 -72.792 Q31.75 -83.105 46.5 -83.105 Q61.25 -83.105 71.562 -72.792 Q81.875 -62.48 81.875 -47.73 Q81.875 -41.98 80.375 -37.292 Q78.875 -32.605 76.375 -29.105 L108.875 3.52 L97.75 14.52 Z M46.5 -28.105 Q54.75 -28.105 60.438 -33.792 Q66.125 -39.48 66.125 -47.73 Q66.125 -55.98 60.438 -61.667 Q54.75 -67.355 46.5 -67.355 Q38.25 -67.355 32.562 -61.667 Q26.875 -55.98 26.875 -47.73 Q26.875 -39.48 32.562 -33.792 Q38.25 -28.105 46.5 -28.105 Z"/></g><g id="Semibold-M" transform="matrix(1 0 0 1 1985.97 1126)"><path d="M97.859 12.455  65.864 -19.54 Q62.185 -16.822 57.345 -15.214 Q52.505 -13.605 46.935 -13.605 Q32.674 -13.605 22.742 -23.537 Q12.81 -33.469 12.81 -47.73 Q12.81 -61.991 22.742 -71.923 Q32.674 -81.855 46.935 -81.855 Q61.196 -81.855 71.128 -71.923 Q81.06 -61.991 81.06 -47.73 Q81.06 -42.089 79.451 -37.32 Q77.843 -32.551 75.125 -28.942 L107.19 3.194 L97.859 12.455 Z M46.935 -26.855 Q55.674 -26.855 61.742 -32.923 Q67.81 -38.991 67.81 -47.73 Q67.81 -56.469 61.742 -62.537 Q55.674 -68.605 46.935 -68.605 Q38.196 -68.605 32.128 -62.537 Q26.06 -56.469 26.06 -47.73 Q26.06 -38.991 32.128 -32.923 Q38.196 -26.855 46.935 -26.855 Z"/></g><g id="Medium-M" transform="matrix(1 0 0 1 1689.91 1126)"><path d="M97.94 10.906  66.231 -20.803 Q62.511 -17.923 57.651 -16.233 Q52.791 -14.542 47.261 -14.542 Q33.367 -14.542 23.72 -24.189 Q14.073 -33.836 14.073 -47.73 Q14.073 -61.624 23.72 -71.271 Q33.367 -80.917 47.261 -80.917 Q61.155 -80.917 70.802 -71.271 Q80.448 -61.624 80.448 -47.73 Q80.448 -42.17 78.758 -37.34 Q77.068 -32.51 74.188 -28.82 L105.927 2.949 L97.94 10.906 Z M47.261 -25.917 Q56.367 -25.917 62.72 -32.271 Q69.073 -38.624 69.073 -47.73 Q69.073 -56.836 62.72 -63.189 Q56.367 -69.542 47.261 -69.542 Q38.155 -69.542 31.802 -63.189 Q25.448 -56.836 25.448 -47.73 Q25.448 -38.624 31.802 -32.271 Q38.155 -25.917 47.261 -25.917 Z"/></g><g id="Regular-M" transform="matrix(1 0 0 1 1394.06 1126)"><path d="M98 9.77  66.5 -21.73 Q62.75 -18.73 57.875 -16.98 Q53 -15.23 47.5 -15.23 Q33.875 -15.23 24.438 -24.667 Q15 -34.105 15 -47.73 Q15 -61.355 24.438 -70.792 Q33.875 -80.23 47.5 -80.23 Q61.125 -80.23 70.562 -70.792 Q80 -61.355 80 -47.73 Q80 -42.23 78.25 -37.355 Q76.5 -32.48 73.5 -28.73 L105 2.77 L98 9.77 Z M47.5 -25.23 Q56.875 -25.23 63.438 -31.792 Q70 -38.355 70 -47.73 Q70 -57.105 63.438 -63.667 Q56.875 -70.23 47.5 -70.23 Q38.125 -70.23 31.562 -63.667 Q25 -57.105 25 -47.73 Q25 -38.355 31.562 -31.792 Q38.125 -25.23 47.5 -25.23 Z"/></g><g id="Light-M" transform="matrix(1 0 0 1 1098.18 1126)"><path d="M97.712 7.655  66.308 -23.749 Q62.558 -20.653 57.683 -18.903 Q52.808 -17.153 47.596 -17.153 Q34.777 -17.153 25.898 -26.03 Q17.019 -34.907 17.019 -47.722 Q17.019 -60.538 25.896 -69.422 Q34.773 -78.307 47.588 -78.307 Q60.404 -78.307 69.288 -69.428 Q78.173 -60.549 78.173 -47.73 Q78.173 -42.374 76.375 -37.499 Q74.577 -32.624 71.577 -29.018 L102.981 2.385 L97.712 7.655 Z M47.596 -24.653 Q57.26 -24.653 63.966 -31.36 Q70.673 -38.066 70.673 -47.73 Q70.673 -57.393 63.966 -64.1 Q57.26 -70.807 47.596 -70.807 Q37.933 -70.807 31.226 -64.1 Q24.519 -57.393 24.519 -47.73 Q24.519 -38.066 31.226 -31.36 Q37.933 -24.653 47.596 -24.653 Z"/></g><g id="Thin-M" transform="matrix(1 0 0 1 802.565 1126)"><path d="M97.423 5.539  66.115 -25.768 Q62.365 -22.576 57.49 -20.826 Q52.615 -19.076 47.692 -19.076 Q35.68 -19.076 27.359 -27.392 Q19.038 -35.708 19.038 -47.714 Q19.038 -59.72 27.355 -68.052 Q35.671 -76.384 47.677 -76.384 Q59.683 -76.384 68.014 -68.063 Q76.346 -59.743 76.346 -47.73 Q76.346 -42.518 74.5 -37.643 Q72.654 -32.768 69.654 -29.307 L100.962 2.001 L97.423 5.539 Z M47.692 -24.076 Q57.644 -24.076 64.495 -30.927 Q71.346 -37.778 71.346 -47.73 Q71.346 -57.682 64.495 -64.533 Q57.644 -71.384 47.692 -71.384 Q37.74 -71.384 30.889 -64.533 Q24.038 -57.682 24.038 -47.73 Q24.038 -37.778 30.889 -30.927 Q37.74 -24.076 47.692 -24.076 Z"/></g><g id="Ultralight-M" transform="matrix(1 0 0 1 506.415 1126)"><path d="M97.25 4.27  66 -26.98 Q62.25 -23.73 57.375 -21.98 Q52.5 -20.23 47.75 -20.23 Q36.221 -20.23 28.236 -28.21 Q20.25 -36.189 20.25 -47.71 Q20.25 -59.23 28.23 -67.23 Q36.209 -75.23 47.73 -75.23 Q59.25 -75.23 67.25 -67.244 Q75.25 -59.259 75.25 -47.73 Q75.25 -42.605 73.375 -37.73 Q71.5 -32.855 68.5 -29.48 L99.75 1.77 L97.25 4.27 Z M47.75 -23.73 Q57.875 -23.73 64.812 -30.667 Q71.75 -37.605 71.75 -47.73 Q71.75 -57.855 64.812 -64.792 Q57.875 -71.73 47.75 -71.73 Q37.625 -71.73 30.688 -64.792 Q23.75 -57.855 23.75 -47.73 Q23.75 -37.605 30.688 -30.667 Q37.625 -23.73 47.75 -23.73 Z"/></g><g id="Bold-S" transform="matrix(1 0 0 1 2294.23 696)"><path d="M75.251 1.656  50.989 -22.606 Q48.129 -20.831 44.648 -19.795 Q41.168 -18.76 37.086 -18.76 Q26.333 -18.76 18.739 -26.354 Q11.145 -33.948 11.145 -44.698 Q11.145 -55.448 18.739 -63.042 Q26.333 -70.636 37.083 -70.636 Q47.833 -70.636 55.427 -63.042 Q63.021 -55.448 63.021 -44.695 Q63.021 -40.515 61.986 -37.133 Q60.95 -33.751 59.175 -30.989 L83.535 -6.53 L75.251 1.656 Z M37.083 -30.397 Q43.099 -30.397 47.241 -34.54 Q51.384 -38.682 51.384 -44.698 Q51.384 -50.714 47.241 -54.856 Q43.099 -58.999 37.083 -58.999 Q31.067 -58.999 26.925 -54.856 Q22.782 -50.714 22.782 -44.698 Q22.782 -38.682 26.925 -34.54 Q31.067 -30.397 37.083 -30.397 Z"/></g><g id="Semibold-S" transform="matrix(1 0 0 1 1998.1 696)"><path d="M75.337 0.026  51.375 -23.935 Q48.472 -21.988 44.97 -20.867 Q41.468 -19.746 37.429 -19.746 Q27.062 -19.746 19.768 -27.04 Q12.474 -34.334 12.474 -44.698 Q12.474 -55.062 19.768 -62.356 Q27.062 -69.65 37.426 -69.65 Q47.79 -69.65 55.084 -62.356 Q62.378 -55.062 62.378 -44.695 Q62.378 -40.601 61.257 -37.154 Q60.136 -33.708 58.189 -30.861 L82.206 -6.787 L75.337 0.026 Z M37.426 -29.411 Q43.828 -29.411 48.27 -33.854 Q52.713 -38.296 52.713 -44.698 Q52.713 -51.1 48.27 -55.542 Q43.828 -59.985 37.426 -59.985 Q31.024 -59.985 26.582 -55.542 Q22.139 -51.1 22.139 -44.698 Q22.139 -38.296 26.582 -33.854 Q31.024 -29.411 37.426 -29.411 Z"/></g><g id="Medium-S" transform="matrix(1 0 0 1 1701.85 696)"><path d="M75.401 -1.196  51.665 -24.932 Q48.729 -22.857 45.211 -21.671 Q41.693 -20.486 37.687 -20.486 Q27.609 -20.486 20.54 -27.554 Q13.471 -34.623 13.471 -44.698 Q13.471 -54.773 20.54 -61.842 Q27.609 -68.91 37.683 -68.91 Q47.758 -68.91 54.827 -61.842 Q61.896 -54.773 61.896 -44.695 Q61.896 -40.665 60.71 -37.17 Q59.525 -33.676 57.449 -30.764 L81.209 -6.98 L75.401 -1.196 Z M37.683 -28.671 Q44.375 -28.671 49.042 -33.339 Q53.71 -38.006 53.71 -44.698 Q53.71 -51.39 49.042 -56.057 Q44.375 -60.725 37.683 -60.725 Q30.992 -60.725 26.324 -56.057 Q21.657 -51.39 21.657 -44.698 Q21.657 -38.006 26.324 -33.339 Q30.992 -28.671 37.683 -28.671 Z"/></g><g id="Regular-S" transform="matrix(1 0 0 1 1405.73 696)"><path d="M75.448 -2.092  51.877 -25.663 Q48.918 -23.494 45.388 -22.261 Q41.858 -21.028 37.875 -21.028 Q28.01 -21.028 21.106 -27.932 Q14.202 -34.835 14.202 -44.698 Q14.202 -54.56 21.106 -61.464 Q28.01 -68.368 37.872 -68.368 Q47.735 -68.368 54.638 -61.464 Q61.542 -54.56 61.542 -44.695 Q61.542 -40.712 60.309 -37.182 Q59.076 -33.652 56.907 -30.693 L80.478 -7.122 L75.448 -2.092 Z M37.872 -28.129 Q44.776 -28.129 49.608 -32.962 Q54.441 -37.794 54.441 -44.698 Q54.441 -51.602 49.608 -56.434 Q44.776 -61.267 37.872 -61.267 Q30.968 -61.267 26.136 -56.434 Q21.303 -51.602 21.303 -44.698 Q21.303 -37.794 26.136 -32.962 Q30.968 -28.129 37.872 -28.129 Z"/></g><g id="Light-S" transform="matrix(1 0 0 1 1109.75 696)"><path d="M75.22 -3.761  51.725 -27.257 Q48.766 -25.011 45.236 -23.778 Q41.706 -22.545 37.951 -22.545 Q28.721 -22.545 22.258 -29.007 Q15.795 -35.468 15.795 -44.692 Q15.795 -53.916 22.257 -60.383 Q28.718 -66.851 37.942 -66.851 Q47.165 -66.851 53.633 -60.387 Q60.1 -53.924 60.1 -44.695 Q60.1 -40.826 58.83 -37.296 Q57.559 -33.766 55.389 -30.921 L78.885 -7.425 L75.22 -3.761 Z M37.948 -27.674 Q45.079 -27.674 50.026 -32.62 Q54.972 -37.567 54.972 -44.698 Q54.972 -51.829 50.026 -56.776 Q45.079 -61.722 37.948 -61.722 Q30.816 -61.722 25.87 -56.776 Q20.924 -51.829 20.924 -44.698 Q20.924 -37.567 25.87 -32.62 Q30.816 -27.674 37.948 -27.674 Z"/></g><g id="Thin-S" transform="matrix(1 0 0 1 814.015 696)"><path d="M74.993 -5.43  51.573 -28.85 Q48.615 -26.528 45.085 -25.295 Q41.555 -24.063 38.027 -24.063 Q29.433 -24.063 23.411 -30.082 Q17.388 -36.101 17.388 -44.686 Q17.388 -53.271 23.407 -59.302 Q29.426 -65.333 38.011 -65.333 Q46.597 -65.333 52.628 -59.311 Q58.659 -53.288 58.659 -44.695 Q58.659 -40.94 57.35 -37.41 Q56.042 -33.88 53.872 -31.148 L77.292 -7.729 L74.993 -5.43 Z M38.024 -27.219 Q45.383 -27.219 50.443 -32.279 Q55.503 -37.339 55.503 -44.698 Q55.503 -52.057 50.443 -57.117 Q45.383 -62.177 38.024 -62.177 Q30.665 -62.177 25.605 -57.117 Q20.544 -52.057 20.544 -44.698 Q20.544 -37.339 25.605 -32.279 Q30.665 -27.219 38.024 -27.219 Z"/></g><g id="Ultralight-S" transform="matrix(1 0 0 1 517.792 696)"><path d="M74.856 -6.431  51.482 -29.806 Q48.524 -27.439 44.994 -26.206 Q41.464 -24.973 38.073 -24.973 Q29.861 -24.973 24.102 -30.726 Q18.344 -36.48 18.344 -44.682 Q18.344 -52.884 24.098 -58.653 Q29.851 -64.423 38.053 -64.423 Q46.255 -64.423 52.025 -58.665 Q57.794 -52.907 57.794 -44.695 Q57.794 -41.008 56.463 -37.478 Q55.131 -33.948 52.962 -31.285 L76.336 -7.911 L74.856 -6.431 Z M38.069 -26.945 Q45.565 -26.945 50.693 -32.074 Q55.822 -37.202 55.822 -44.698 Q55.822 -52.193 50.693 -57.322 Q45.565 -62.45 38.069 -62.45 Q30.574 -62.45 25.445 -57.322 Q20.317 -52.193 20.317 -44.698 Q20.317 -37.202 25.445 -32.074 Q30.574 -26.945 38.069 -26.945 Z"/></g></g></svg>